<svg xmlns="http://www.w3.org/2000/svg" width="100" height="100" viewBox="0 0 100 100">
  <defs>
    <pattern id="ornatePattern" x="0" y="0" width="100" height="100" patternUnits="userSpaceOnUse">
      <!-- Ornate decorative pattern in gold -->
      <rect width="100" height="100" fill="transparent"/>
      
      <!-- Central ornate motif -->
      <g fill="#D4AF37" opacity="0.15">
        <!-- Main central flower -->
        <circle cx="50" cy="50" r="8" fill="none" stroke="#D4AF37" stroke-width="1.5"/>
        
        <!-- Petals around center -->
        <path d="M50,35 Q45,40 50,45 Q55,40 50,35" />
        <path d="M65,50 Q60,45 55,50 Q60,55 65,50" />
        <path d="M50,65 Q55,60 50,55 Q45,60 50,65" />
        <path d="M35,50 Q40,55 45,50 Q40,45 35,50" />
        
        <!-- Corner ornaments -->
        <path d="M15,15 Q20,10 25,15 Q20,20 15,15" />
        <path d="M85,15 Q80,10 75,15 Q80,20 85,15" />
        <path d="M85,85 Q80,90 75,85 Q80,80 85,85" />
        <path d="M15,85 Q20,90 25,85 Q20,80 15,85" />
        
        <!-- Connecting swirls -->
        <path d="M30,30 Q35,25 40,30 Q35,35 30,30" stroke="#D4AF37" stroke-width="1" fill="none"/>
        <path d="M70,30 Q65,25 60,30 Q65,35 70,30" stroke="#D4AF37" stroke-width="1" fill="none"/>
        <path d="M70,70 Q65,75 60,70 Q65,65 70,70" stroke="#D4AF37" stroke-width="1" fill="none"/>
        <path d="M30,70 Q35,75 40,70 Q35,65 30,70" stroke="#D4AF37" stroke-width="1" fill="none"/>
        
        <!-- Decorative lines -->
        <line x1="50" y1="20" x2="50" y2="30" stroke="#D4AF37" stroke-width="1"/>
        <line x1="80" y1="50" x2="70" y2="50" stroke="#D4AF37" stroke-width="1"/>
        <line x1="50" y1="80" x2="50" y2="70" stroke="#D4AF37" stroke-width="1"/>
        <line x1="20" y1="50" x2="30" y2="50" stroke="#D4AF37" stroke-width="1"/>
      </g>
    </pattern>
  </defs>
  
  <rect width="100" height="100" fill="url(#ornatePattern)"/>
</svg>